# xmcd
# 
# Track frame offsets:
#     187
#     29737
#     56182
#     82730
#     105972
#     131790
#     155657
#     182515
#     204145
#     226355
#     255222
#     273257
#     299665
#     322222
# 
# Disc length: 4520
# 
# Revision: 4
# Processed by: cddbd v1.5.2PL0 Copyright (c) Steve Scherf et al.
# Submitted via: fre:ac v1.0.17
# 
DISCID=c311a60e
DTITLE=AnnLewis - WOMANISM Ⅲ
DYEAR=0
DGENRE=Rock
TTITLE0=BIRD OF PARADISE
TTITLE1=SAMISHISA'S ON MY MIND
TTITLE2=FOUR SEASONS
TTITLE3=美人薄命 (Different Mix)
TTITLE4=HOREてしまった
TTITLE5=LOVE MACHINE
TTITLE6=HEAVEN OR HELL
TTITLE7=FEED BACK
TTITLE8=TRIANGLE BLUE
TTITLE9=ASIAN BLUE
TTITLE10=UWAKI
TTITLE11=WOMAN (X-10ed MIX)
TTITLE12=愛してくれる女を愛せ
TTITLE13=今、FAR AWAY
EXTD=
EXTT0=
EXTT1=
EXTT2=
EXTT3=
EXTT4=
EXTT5=
EXTT6=
EXTT7=
EXTT8=
EXTT9=
EXTT10=
EXTT11=
EXTT12=
EXTT13=
PLAYORDER=
